<?xml version="1.0" encoding="UTF-8"?><svg id="Ebene_1" xmlns="http://www.w3.org/2000/svg" viewBox="0 0 1112.86 1166.86"><path d="M350.74,188.96l-51.07,220.51-52.29-220.91h-69.31l56.75,231.86c9.32,37.7,40.53,55.94,64.85,55.94s55.94-18.24,64.45-55.94l53.51-231.86-66.88,.41Z"/><path d="M886.73,244.18l-105.12,104.5c-5.84,5.8-15.18,2.71-15.18-6.19v-44.12c0-15.87-11.68-27.48-27.64-27.48s-26.87,10.84-26.87,27.48v160.63h161.97c15.97,0,27.26-11.61,27.26-27.09s-12.07-27.09-28.03-27.09h-44c-8.95,0-12.07-9.29-6.23-15.09l105.12-104.5-41.27-41.03Z"/><path d="M437.61,792.59h225.23v-59.98h-88.54c-15.92,0-24.46-15.2-16.7-29.59l104.46-190.34h-218.63v59.98h81.94c15.92,0,24.47,15.19,16.7,29.59l-104.46,190.34Z"/><path d="M705.35,792.59h64.03v-85.63c0-16.41,12-28.41,28.41-28.41h31.22c16.41,0,28.41,12.01,28.41,28.41v85.63h64.03v-280.11h-64.03v77.63c0,16.41-12,28.41-28.41,28.41h-31.22c-16.41,0-28.41-12-28.41-28.41v-77.63h-64.03v280.11Z"/><path d="M299.27,803.33c71.5,0,112.35-39.33,112.35-109.79v-181.07h-65.37v188.44c0,29.08-20.02,29.08-46.99,29.08s-46.99,0-46.99-29.08v-188.44h-65.37v181.07c0,70.46,40.86,109.79,112.35,109.79"/><path d="M443.5,458.99h210.55v-87.39c0-45.63-33.22-78.89-78.81-78.89h-40.56c-15.84,0-26.27-8.9-26.27-22.43s10.43-22.04,26.27-22.04h112.03v-59.94h-115.9c-47.9,0-86.15,32.87-86.15,82.37s38.25,80.05,86.15,80.05h27.43c17.77,0,28.98,10.44,28.98,23.97s-11.2,24.36-28.98,24.36h-114.74v59.94Z"/><g><path d="M231.49,841.16h9.59l-17.71,53.74h-11.47l-17.47-53.74h10.22l13.26,43.91,13.57-43.91Z"/><path d="M276.65,877.51h-27.38c.23,6.79,3.51,11.46,10.22,11.46,4.84,0,7.96-2.81,9.67-7.33l7.33,3.04c-2.34,6.01-8.03,11.08-17.31,11.08-12.01,0-18.64-7.96-18.64-20.12s7.96-20.12,18.41-20.12c11.31,0,17.71,7.96,17.71,20.43v1.56Zm-27.14-6.08h18.25c-.31-6.24-3.74-9.36-8.89-9.36s-8.74,3.43-9.36,9.36Z"/><path d="M284.37,894.9v-38.22h8.66v10.45c2.26-7.02,6.86-11.54,13.81-11.54,.55,0,1.01,0,1.56,.08v9.13c-.7-.16-1.4-.16-2.34-.16-7.8,0-12.87,4.21-12.87,14.04v16.22h-8.81Z"/><path d="M351.53,875.56c0,12.87-6.63,20.28-15.6,20.28-6.4,0-10.76-3.59-12.79-8.27v7.33h-8.74v-53.74h8.89v22.85c1.95-4.68,6.16-8.27,12.64-8.27,9.13,0,15.6,7.41,15.6,19.81Zm-9.05,.16c0-8.58-3.67-13.34-9.59-13.34s-9.75,4.99-9.75,13.42,3.74,13.41,9.83,13.41,9.52-4.68,9.52-13.49Z"/><path d="M396.61,888.66v5.69c-1.25,.78-3.28,1.25-5.23,1.25-5.3,0-8.19-2.89-8.5-7.88-1.95,4.84-6.4,8.27-12.87,8.27-7.25,0-12.48-4.21-12.48-11.7,0-9.75,8.19-13.26,18.41-13.41,2.34,0,4.29,.16,6.16,.31v-2.11c0-4.84-2.34-7.49-7.88-7.49-4.52,0-7.49,2.18-7.8,6.16v.7l-8.35-1.4c.39-6.86,6.94-11.54,16.14-11.54,10.61,0,16.46,5.22,16.46,14.9v14.35c0,3.35,1.09,4.37,3.43,4.37,.78,0,1.64-.08,2.5-.47Zm-14.51-9.51v-2.73c-1.25-.08-2.57-.16-4.06-.16-7.25,.16-11.78,2.11-11.78,7.41,0,3.59,2.5,5.77,6.63,5.77,5.54,0,9.2-3.82,9.2-10.3Z"/><path d="M436.31,870.33v24.57h-8.97v-22.38c0-6.16-2.34-9.2-7.18-9.2-5.62,0-9.59,4.68-9.59,12.48v19.11h-8.89v-38.22h8.66v8.97c1.95-5.69,6.47-9.83,13.1-9.83,8.35,0,12.87,5.85,12.87,14.51Z"/><path d="M471.8,841.16h8.97v53.74h-8.81v-7.33c-2.11,4.84-6.47,8.27-12.79,8.27-9.05,0-15.6-7.18-15.6-20.04s6.55-20.05,15.99-20.05c6.4,0,10.37,3.67,12.25,8.19v-22.77Zm.16,34.63c0-8.42-3.74-13.42-9.59-13.42s-9.75,4.84-9.75,13.34,3.59,13.49,9.67,13.49,9.67-5.38,9.67-13.41Z"/><path d="M504.4,879.3l8.11-2.73,.23,1.25c1.48,7.41,5.62,10.69,12.32,10.69,6.08,0,9.52-2.96,9.52-7.25,0-4.52-2.73-6.55-8.58-8.74l-6.01-2.03c-7.02-2.5-13.57-6.63-13.57-15.76,0-9.67,7.96-14.74,18.02-14.74,10.76,0,17,5.54,18.48,14.12l.08,1.01-8.27,2.11-.08-1.17c-.86-5.54-4.6-8.89-10.45-8.89-5.15,0-8.97,2.18-8.97,6.71s3.35,6.4,7.88,7.96l6.71,2.26c8.42,2.89,14.2,7.72,14.2,16.38,0,9.2-7.25,15.6-19.11,15.6-12.79,0-18.72-6.79-20.12-15.83l-.39-.94Z"/><path d="M547.22,863.39v-6.71h8.42v-11.39h8.5v11.39h9.67v6.71h-9.59v19.42c0,4.13,1.79,5.62,5.62,5.62,1.56,0,2.81-.23,4.37-.7v6.55c-1.4,.7-3.9,1.4-6.71,1.4-7.72,0-11.86-3.82-11.86-11.7v-20.59h-8.42Z"/><path d="M580.84,881.41v-24.72h8.81v22.54c0,6.08,2.18,9.05,6.55,9.05,5.54,0,9.59-4.29,9.59-12.71v-18.88h8.89v38.22h-8.74v-8.58c-2.03,5.46-6.47,9.44-12.95,9.44-8.03,0-12.17-5.62-12.17-14.35Z"/><path d="M650.57,841.16h8.97v53.74h-8.81v-7.33c-2.11,4.84-6.47,8.27-12.79,8.27-9.05,0-15.6-7.18-15.6-20.04s6.55-20.05,15.99-20.05c6.4,0,10.37,3.67,12.25,8.19v-22.77Zm.16,34.63c0-8.42-3.74-13.42-9.59-13.42s-9.75,4.84-9.75,13.34,3.59,13.49,9.67,13.49,9.67-5.38,9.67-13.41Z"/><path d="M669.21,894.9v-38.22h8.89v38.22h-8.89Zm.08-44.85v-9.2h8.74v9.2h-8.74Z"/><path d="M721.78,877.51h-27.38c.24,6.79,3.51,11.46,10.22,11.46,4.84,0,7.96-2.81,9.67-7.33l7.33,3.04c-2.34,6.01-8.03,11.08-17.31,11.08-12.01,0-18.64-7.96-18.64-20.12s7.96-20.12,18.41-20.12c11.31,0,17.7,7.96,17.7,20.43v1.56Zm-27.14-6.08h18.25c-.31-6.24-3.74-9.36-8.89-9.36s-8.74,3.43-9.36,9.36Z"/><path d="M729.5,894.9v-38.22h8.66v10.45c2.26-7.02,6.86-11.54,13.8-11.54,.55,0,1.01,0,1.56,.08v9.13c-.7-.16-1.4-.16-2.34-.16-7.8,0-12.87,4.21-12.87,14.04v16.22h-8.81Z"/><path d="M792.6,877.51h-27.38c.23,6.79,3.51,11.46,10.22,11.46,4.84,0,7.96-2.81,9.67-7.33l7.33,3.04c-2.34,6.01-8.03,11.08-17.31,11.08-12.01,0-18.64-7.96-18.64-20.12s7.96-20.12,18.41-20.12c11.31,0,17.7,7.96,17.7,20.43v1.56Zm-27.14-6.08h18.25c-.31-6.24-3.74-9.36-8.89-9.36s-8.74,3.43-9.36,9.36Z"/><path d="M834.95,870.33v24.57h-8.97v-22.38c0-6.16-2.34-9.2-7.18-9.2-5.61,0-9.59,4.68-9.59,12.48v19.11h-8.89v-38.22h8.66v8.97c1.95-5.69,6.47-9.83,13.1-9.83,8.35,0,12.87,5.85,12.87,14.51Z"/><path d="M870.44,841.16h8.97v53.74h-8.81v-7.33c-2.11,4.84-6.47,8.27-12.79,8.27-9.05,0-15.6-7.18-15.6-20.04s6.55-20.05,15.99-20.05c6.4,0,10.37,3.67,12.25,8.19v-22.77Zm.16,34.63c0-8.42-3.74-13.42-9.59-13.42s-9.75,4.84-9.75,13.34,3.59,13.49,9.67,13.49,9.67-5.38,9.67-13.41Z"/><path d="M923.17,877.51h-27.38c.24,6.79,3.51,11.46,10.22,11.46,4.84,0,7.96-2.81,9.67-7.33l7.33,3.04c-2.34,6.01-8.03,11.08-17.31,11.08-12.01,0-18.64-7.96-18.64-20.12s7.96-20.12,18.41-20.12c11.31,0,17.7,7.96,17.7,20.43v1.56Zm-27.14-6.08h18.25c-.31-6.24-3.74-9.36-8.89-9.36s-8.74,3.43-9.36,9.36Z"/></g><g><path d="M198.89,949.27v-33.62h9.44v33.38c0,9.83,4.84,13.34,11.7,13.34s11.62-3.51,11.62-13.34v-33.38h9.36v33.77c0,14.74-8.58,21.14-21.14,21.14s-20.98-6.63-20.98-21.29Z"/><path d="M285.15,944.82v24.57h-8.97v-22.38c0-6.16-2.34-9.2-7.18-9.2-5.62,0-9.59,4.68-9.59,12.48v19.11h-8.89v-38.22h8.66v8.97c1.95-5.69,6.47-9.83,13.1-9.83,8.35,0,12.87,5.85,12.87,14.51Z"/><path d="M294.36,969.39v-38.22h8.89v38.22h-8.89Zm.08-44.85v-9.2h8.74v9.2h-8.74Z"/><path d="M338.58,931.18h8.89l-14.82,38.22h-9.28l-14.66-38.22h9.75l9.91,29.48,10.22-29.48Z"/><path d="M386.16,952h-27.38c.23,6.79,3.51,11.46,10.22,11.46,4.84,0,7.96-2.81,9.67-7.33l7.33,3.04c-2.34,6.01-8.03,11.08-17.31,11.08-12.01,0-18.64-7.96-18.64-20.12s7.96-20.12,18.41-20.12c11.31,0,17.71,7.96,17.71,20.43v1.56Zm-27.14-6.08h18.25c-.31-6.24-3.74-9.36-8.89-9.36s-8.74,3.43-9.36,9.36Z"/><path d="M393.88,969.39v-38.22h8.66v10.45c2.26-7.02,6.86-11.54,13.81-11.54,.55,0,1.01,0,1.56,.08v9.13c-.7-.16-1.4-.16-2.34-.16-7.8,0-12.87,4.21-12.87,14.04v16.22h-8.81Z"/><path d="M428.43,956.99c.78,4.21,4.13,7.41,9.2,7.41s7.41-2.18,7.41-4.99-1.48-4.06-6.16-5.3l-6.24-1.72c-6.86-1.72-10.37-5.62-10.37-11.07,0-6.94,6.16-11.31,14.9-11.31,7.72,0,13.57,3.82,15.21,10.14l-7.57,2.03c-.7-3.12-3.12-6.16-8.03-6.16-4.29,0-6.55,1.79-6.55,4.29,0,2.65,1.79,3.74,6.01,4.91l6.63,1.79c7.41,1.95,10.53,5.93,10.53,11.31,0,7.56-6.24,12.17-15.91,12.17s-15.52-4.68-16.85-11.31l7.8-2.18Z"/><path d="M460.8,969.39v-38.22h8.89v38.22h-8.89Zm.08-44.85v-9.2h8.74v9.2h-8.74Z"/><path d="M475.08,937.88v-6.71h8.42v-11.39h8.5v11.39h9.67v6.71h-9.59v19.42c0,4.13,1.79,5.62,5.62,5.62,1.56,0,2.81-.23,4.37-.7v6.55c-1.4,.7-3.9,1.4-6.71,1.4-7.72,0-11.86-3.82-11.86-11.7v-20.59h-8.42Z"/><path d="M546.36,963.15v5.69c-1.25,.78-3.28,1.25-5.23,1.25-5.3,0-8.19-2.89-8.5-7.88-1.95,4.84-6.4,8.27-12.87,8.27-7.25,0-12.48-4.21-12.48-11.7,0-9.75,8.19-13.26,18.41-13.41,2.34,0,4.29,.16,6.16,.31v-2.11c0-4.84-2.34-7.49-7.88-7.49-4.52,0-7.49,2.18-7.8,6.16v.7l-8.35-1.4c.39-6.86,6.94-11.54,16.14-11.54,10.61,0,16.46,5.22,16.46,14.9v14.35c0,3.35,1.09,4.37,3.43,4.37,.78,0,1.64-.08,2.5-.47Zm-25.74-47.81v9.2h-8.66v-9.2h8.66Zm11.23,38.3v-2.73c-1.25-.08-2.57-.16-4.06-.16-7.25,.16-11.78,2.11-11.78,7.41,0,3.59,2.5,5.77,6.63,5.77,5.54,0,9.2-3.82,9.2-10.3Zm4.37-38.3v9.2h-8.58v-9.2h8.58Z"/><path d="M546.29,937.88v-6.71h8.42v-11.39h8.5v11.39h9.67v6.71h-9.59v19.42c0,4.13,1.79,5.62,5.62,5.62,1.56,0,2.81-.23,4.37-.7v6.55c-1.4,.7-3.9,1.4-6.71,1.4-7.72,0-11.86-3.82-11.86-11.7v-20.59h-8.42Z"/><path d="M594.02,969.39v-7.18l28.78-38.69h-27.22v-7.88h38.69v6.63l-29.25,39.15h29.33v7.96h-40.32Z"/><path d="M640.43,955.9v-24.72h8.81v22.54c0,6.08,2.18,9.05,6.55,9.05,5.54,0,9.59-4.29,9.59-12.71v-18.88h8.89v38.22h-8.74v-8.58c-2.03,5.46-6.47,9.44-12.95,9.44-8.03,0-12.17-5.62-12.17-14.35Zm4.45-31.35v-9.2h8.66v9.2h-8.66Zm15.76,0v-9.2h8.58v9.2h-8.58Z"/><path d="M683.87,969.39v-38.22h8.66v10.45c2.26-7.02,6.86-11.54,13.81-11.54,.55,0,1.01,0,1.56,.08v9.13c-.7-.16-1.4-.16-2.34-.16-7.8,0-12.87,4.21-12.87,14.04v16.22h-8.81Z"/><path d="M713.9,969.39v-38.22h8.89v38.22h-8.89Zm.08-44.85v-9.2h8.74v9.2h-8.74Z"/><path d="M730.36,950.13c0-12.71,7.96-20.12,18.64-20.12,8.66,0,13.96,4.68,15.83,11.7l-7.88,2.26c-1.25-4.52-3.82-7.02-8.19-7.02-5.46,0-9.36,4.29-9.36,13.42,0,8.35,3.59,13.02,9.44,13.02,4.37,0,7.33-2.5,8.74-7.64l7.72,2.5c-2.11,7.1-7.41,12.09-16.77,12.09-11.15,0-18.17-8.03-18.17-20.2Z"/><path d="M806.64,944.82v24.57h-8.97v-22.38c0-6.16-2.34-9.2-7.18-9.2-5.62,0-9.59,4.68-9.59,12.48v19.11h-8.89v-53.74h8.89v24.02c2.03-5.46,6.47-9.36,12.95-9.36,8.27,0,12.79,5.85,12.79,14.51Z"/></g></svg>